<svg xmlns="http://www.w3.org/2000/svg" viewBox="0 0 64 64" fill="none">
  <rect width="64" height="64" rx="14" fill="#2563eb"/>
  <rect x="6" y="6" width="52" height="52" rx="10" fill="#1d4ed8"/>
  <text x="32" y="26" text-anchor="middle" font-family="Arial Black, Arial, sans-serif" font-weight="900" font-size="14" fill="#fbbf24" letter-spacing="1">CF</text>
  <path d="M14 42 L14 32 C14 28 18 26 22 28 L26 30 L30 26 L34 30 L38 26 L42 28 C46 30 50 28 50 32 L50 42 C50 44 48 46 46 46 L18 46 C16 46 14 44 14 42Z" fill="#fbbf24" opacity="0.9"/>
  <rect x="18" y="38" width="4" height="6" rx="1" fill="#1d4ed8"/>
  <rect x="24" y="34" width="4" height="10" rx="1" fill="#1d4ed8"/>
  <rect x="30" y="36" width="4" height="8" rx="1" fill="#1d4ed8"/>
  <rect x="36" y="32" width="4" height="12" rx="1" fill="#1d4ed8"/>
  <rect x="42" y="30" width="4" height="14" rx="1" fill="#1d4ed8"/>
</svg>
